<svg width="20" height="20" viewBox="0 0 20 20" fill="none"
  xmlns="http://www.w3.org/2000/svg">
  <path
    d="M14.4175 8.75H19.3325C19.3919 8.75002 19.45 8.76696 19.5001 8.79883C19.5502 8.83071 19.5902 8.8762 19.6154 8.92997C19.6406 8.98375 19.6499 9.04358 19.6423 9.10247C19.6347 9.16137 19.6105 9.21687 19.5725 9.2625L17.115 12.2125C17.0857 12.2477 17.049 12.276 17.0075 12.2954C16.966 12.3148 16.9208 12.3249 16.875 12.3249C16.8292 12.3249 16.784 12.3148 16.7425 12.2954C16.701 12.276 16.6643 12.2477 16.635 12.2125L14.1775 9.2625C14.1395 9.21687 14.1153 9.16137 14.1077 9.10247C14.1001 9.04358 14.1094 8.98375 14.1346 8.92997C14.1598 8.8762 14.1998 8.83071 14.2499 8.79883C14.3 8.76696 14.3581 8.75002 14.4175 8.75ZM0.667486 11.25H5.58249C5.64187 11.25 5.70001 11.233 5.75011 11.2012C5.80021 11.1693 5.84019 11.1238 5.86537 11.07C5.89056 11.0163 5.8999 10.9564 5.8923 10.8975C5.88471 10.8386 5.86049 10.7831 5.82249 10.7375L3.36499 7.7875C3.33566 7.75233 3.29896 7.72404 3.25749 7.70462C3.21601 7.6852 3.17078 7.67514 3.12499 7.67514C3.07919 7.67514 3.03396 7.6852 2.99249 7.70462C2.95101 7.72404 2.91431 7.75233 2.88499 7.7875L0.427486 10.7375C0.389483 10.7831 0.365266 10.8386 0.35767 10.8975C0.350074 10.9564 0.359415 11.0163 0.384597 11.07C0.40978 11.1238 0.449762 11.1693 0.499862 11.2012C0.549962 11.233 0.608106 11.25 0.667486 11.25Z"
    fill="white" />
  <path fill-rule="evenodd" clip-rule="evenodd"
    d="M10 3.74999C8.06001 3.74999 6.32501 4.63374 5.17876 6.02249C5.12758 6.08883 5.06357 6.1442 4.99056 6.18531C4.91755 6.22642 4.83701 6.25243 4.75375 6.26179C4.67048 6.27115 4.58618 6.26368 4.50586 6.23981C4.42554 6.21593 4.35084 6.17616 4.28621 6.12284C4.22157 6.06952 4.16831 6.00374 4.1296 5.92943C4.0909 5.85511 4.06753 5.77378 4.06088 5.69025C4.05424 5.60672 4.06446 5.52271 4.09094 5.44321C4.11742 5.36371 4.15961 5.29035 4.21501 5.22749C5.13025 4.11939 6.3445 3.2975 7.71334 2.85956C9.08218 2.42161 10.548 2.38605 11.9365 2.7571C13.3249 3.12815 14.5776 3.89019 15.5455 4.95259C16.5134 6.015 17.1558 7.33305 17.3963 8.74999H16.125C15.8364 7.3385 15.0692 6.06998 13.9532 5.15892C12.8371 4.24786 11.4407 3.75016 10 3.74999ZM3.87501 11.25C4.11165 12.4058 4.67045 13.471 5.48686 14.3227C6.30326 15.1743 7.34396 15.7776 8.48871 16.0628C9.63347 16.3481 10.8356 16.3036 11.9561 15.9346C13.0767 15.5656 14.07 14.8871 14.8213 13.9775C14.8724 13.9111 14.9364 13.8558 15.0095 13.8147C15.0825 13.7736 15.163 13.7475 15.2463 13.7382C15.3295 13.7288 15.4138 13.7363 15.4942 13.7602C15.5745 13.784 15.6492 13.8238 15.7138 13.8771C15.7785 13.9305 15.8317 13.9962 15.8704 14.0705C15.9091 14.1449 15.9325 14.2262 15.9391 14.3097C15.9458 14.3933 15.9356 14.4773 15.9091 14.5568C15.8826 14.6363 15.8404 14.7096 15.785 14.7725C14.8698 15.8806 13.6555 16.7025 12.2867 17.1404C10.9178 17.5784 9.45201 17.6139 8.06354 17.2429C6.67507 16.8718 5.42239 16.1098 4.4545 15.0474C3.4866 13.985 2.84422 12.6669 2.60376 11.25H3.87501Z"
    fill="white" />
</svg>