<svg width="23" height="21" viewBox="0 0 23 21" fill="none" xmlns="http://www.w3.org/2000/svg">
<path d="M3.13148 21C3.11653 21 3.10272 21 3.08662 20.9988C2.72437 20.9803 2.36902 20.9017 2.03092 20.7642C0.366855 20.0845 -0.43585 18.1736 0.239204 16.5021L8.65841 1.6756C8.94822 1.14848 9.38752 0.706894 9.92342 0.408653C11.4932 -0.465263 13.4781 0.109256 14.3464 1.686L22.7104 16.3992C22.8967 16.8397 22.976 17.198 22.9956 17.5633C23.0404 18.4372 22.7437 19.2753 22.1618 19.9238C21.5799 20.5723 20.7807 20.9549 19.9124 20.9988L3.21428 21H3.13148Z" fill="#F4F3F4"/>
<path fill-rule="evenodd" clip-rule="evenodd" d="M10.4937 8.07303C10.4937 7.51873 10.9456 7.06677 11.4999 7.06677C12.0542 7.06677 12.5062 7.51873 12.5062 8.07303V11.3253C12.5062 11.8807 12.0542 12.3315 11.4999 12.3315C10.9456 12.3315 10.4937 11.8807 10.4937 11.3253V8.07303ZM10.4937 15.2595C10.4937 14.7018 10.9456 14.2475 11.4999 14.2475C12.0542 14.2475 12.5062 14.696 12.5062 15.2469C12.5062 15.8138 12.0542 16.2658 11.4999 16.2658C10.9456 16.2658 10.4937 15.8138 10.4937 15.2595Z" fill="#062439"/>
</svg>
