<svg width="40" height="40" viewBox="0 0 40 40" fill="none" xmlns="http://www.w3.org/2000/svg">
    <path fill-rule="evenodd" clip-rule="evenodd" d="M17.3528 23.6345H21.6732C21.9988 23.6345 22.2688 23.336 22.2688 22.976C22.2688 22.616 21.9988 22.3262 21.6732 22.3262H17.3528C17.0271 22.3262 16.7571 22.616 16.7571 22.976C16.7571 23.336 17.0271 23.6345 17.3528 23.6345ZM20.0371 17.936H17.3528C17.0271 17.936 16.7571 18.2345 16.7571 18.5945C16.7571 18.9545 17.0271 19.2443 17.3528 19.2443H20.0371C20.3628 19.2443 20.6328 18.9545 20.6328 18.5945C20.6328 18.2345 20.3628 17.936 20.0371 17.936ZM25.7043 17.1688C25.891 17.1665 26.0943 17.1639 26.279 17.1639C26.4775 17.1639 26.6364 17.3395 26.6364 17.559V24.6185C26.6364 26.7961 25.04 28.5609 23.0704 28.5609H16.7486C14.6837 28.5609 13 26.7083 13 24.4253V14.96C13 12.7824 14.6043 11 16.5818 11H20.8228C21.0293 11 21.1882 11.1844 21.1882 11.4039V14.2312C21.1882 15.838 22.3874 17.1551 23.8408 17.1639C24.1803 17.1639 24.4796 17.1667 24.7415 17.1691C24.9452 17.171 25.1264 17.1727 25.2862 17.1727C25.3993 17.1727 25.5458 17.1708 25.7043 17.1688ZM25.9244 15.8862C25.2716 15.8889 24.502 15.8862 23.9485 15.8801C23.0701 15.8801 22.3466 15.0802 22.3466 14.1091V11.7945C22.3466 11.4161 22.762 11.2282 22.9994 11.5013C23.4296 11.9958 24.0208 12.6756 24.6093 13.3523C25.1952 14.0261 25.7784 14.6966 26.1969 15.1777C26.4288 15.4437 26.2588 15.8854 25.9244 15.8862Z" fill="#6E6E73"/>
</svg>
