<?xml version="1.0" encoding="utf-8"?>
<!-- Generator: Adobe Illustrator 25.2.1, SVG Export Plug-In . SVG Version: 6.00 Build 0)  -->
<svg version="1.1" id="Слой_1" xmlns="http://www.w3.org/2000/svg" xmlns:xlink="http://www.w3.org/1999/xlink" x="0px" y="0px"
     viewBox="0 0 120 25" style="enable-background:new 0 0 120 25;" xml:space="preserve">
<style type="text/css">
	.st0{fill:#062439;}
	.st1{fill:url(#SVGID_1_);}
	.st2{fill:url(#SVGID_2_);}
	.st3{fill:url(#SVGID_3_);}
</style>
  <path class="st0" d="M30,8.3c2.6,0,4.7,0.7,6.3,2.2c1.6,1.5,2.4,3.6,2.4,6.3c0,2.6-0.8,4.6-2.5,6.1c-1.7,1.4-3.8,2.1-6.4,2.1
	c-2.5,0-4.6-0.7-6.2-2.1c-1.6-1.4-2.4-3.5-2.4-6.2c0-2.6,0.8-4.7,2.5-6.1C25.4,9,27.5,8.3,30,8.3z M29.9,20.6c1,0,1.8-0.3,2.4-0.9
	c0.6-0.6,0.9-1.6,0.9-2.9c0-1.2-0.3-2.2-0.8-2.9c-0.5-0.8-1.3-1.1-2.3-1.1c-1,0-1.9,0.3-2.4,1c-0.6,0.7-0.8,1.6-0.8,2.9
	c0,1.2,0.3,2.2,0.8,2.9S28.9,20.6,29.9,20.6z"/>
  <path class="st0" d="M47.7,8.3c2.6,0,4.7,0.7,6.3,2.2c1.6,1.5,2.4,3.6,2.4,6.3c0,2.6-0.8,4.6-2.5,6.1c-1.7,1.4-3.8,2.1-6.4,2.1
	c-2.5,0-4.6-0.7-6.2-2.1c-1.6-1.4-2.4-3.5-2.4-6.2c0-2.6,0.8-4.7,2.5-6.1C43.1,9,45.2,8.3,47.7,8.3z M47.6,20.6c1,0,1.8-0.3,2.4-0.9
	c0.6-0.6,0.9-1.6,0.9-2.9c0-1.2-0.3-2.2-0.8-2.9c-0.5-0.8-1.3-1.1-2.3-1.1c-1,0-1.9,0.3-2.4,1c-0.6,0.7-0.8,1.6-0.8,2.9
	c0,1.2,0.3,2.2,0.8,2.9S46.6,20.6,47.6,20.6z"/>
  <path class="st0" d="M63,1.9v12.2c1-0.9,2.1-1.8,3.1-2.7c1-0.9,2.1-1.8,3.1-2.7c0.5,0.6,1,1.3,1.6,1.9c0.5,0.6,1.1,1.2,1.6,1.8
	L68,15.9l5.6,9.1h-5.9l-3.5-6.1c-0.2,0.2-0.4,0.3-0.6,0.5c-0.2,0.2-0.4,0.3-0.6,0.5V25h-5.4V2.3L63,1.9z"/>
  <path class="st0" d="M83.7,8.6c2.2,0,3.8,0.6,4.7,1.9c1,1.3,1.4,2.8,1.4,4.7V25h-5.4v-9.7c0-0.7-0.2-1.3-0.6-1.7
	C83.5,13.2,83,13,82.3,13c-0.5,0-1,0.1-1.6,0.4c-0.6,0.2-1.2,0.5-1.6,0.8V25h-5.4V9.2h2.7l1.2,1.5c0.7-0.5,1.6-1,2.7-1.4
	C81.4,8.8,82.6,8.6,83.7,8.6z"/>
  <path class="st0" d="M99.1,8.3c2.5,0,4.4,0.8,5.6,2.5c1.2,1.6,1.9,3.6,1.9,5.8v1.8h-10c0.2,0.8,0.6,1.3,1.2,1.7
	c0.6,0.4,1.4,0.6,2.3,0.6c0.7,0,1.4-0.1,2.1-0.2c0.7-0.2,1.3-0.4,2-0.7l1.5,3.7c-0.8,0.6-1.9,1.1-3.2,1.3c-1.2,0.2-2.2,0.3-2.8,0.3
	c-2.6,0-4.8-0.7-6.5-2.1c-1.7-1.4-2.5-3.4-2.5-6.2c0-2.6,0.8-4.7,2.4-6.2C94.7,9,96.7,8.3,99.1,8.3z M98.9,12.7
	c-0.7,0-1.2,0.2-1.6,0.6c-0.4,0.4-0.7,1-0.8,1.7h5c-0.1-0.6-0.3-1.2-0.7-1.6C100.3,12.9,99.7,12.7,98.9,12.7z"/>
  <path class="st0" d="M116,25c-2,0-3.7-0.5-5.1-1.5c-1.4-1-2.1-2.5-2.1-4.6v-5.6h-2.3V9.2h2.3V5.1l5.4-0.8v4.9h3.5l0.8,4.2h-4.3v4.9
	c0,0.7,0.2,1.3,0.6,1.7c0.4,0.4,1,0.7,1.7,0.7c0.3,0,0.6,0,1-0.1c0.4-0.1,0.8-0.3,1.1-0.4l1.5,3.7c-0.4,0.3-1,0.6-1.8,0.9
	C117.4,24.9,116.6,25,116,25z"/>
  <linearGradient id="SVGID_1_" gradientUnits="userSpaceOnUse" x1="16.5016" y1="6.8397" x2="-1.576356e-02" y2="1.2419" gradientTransform="matrix(1 0 0 -1 0 25.8898)">
	<stop  offset="0" style="stop-color:#556DEE"/>
    <stop  offset="1" style="stop-color:#09273D"/>
</linearGradient>
  <path class="st1" d="M18.7,25H1c-0.6,0-1-0.5-0.9-1c0.4-2.5,2.1-8.7,9.6-8.7c7.5,0,9.4,6.2,9.9,8.7C19.7,24.5,19.2,25,18.7,25z"/>
  <linearGradient id="SVGID_2_" gradientUnits="userSpaceOnUse" x1="6.0647" y1="5.2443" x2="-3.0171" y2="22.916" gradientTransform="matrix(1 0 0 -1 0 25.8898)">
	<stop  offset="0" style="stop-color:#556DEE"/>
    <stop  offset="1" style="stop-color:#09273D"/>
</linearGradient>
  <path class="st2" d="M0,24.1L0,2.3c0-0.6,0.5-1,1-0.9C3.2,2,7.8,4.2,7.8,13c0,8.8-4.6,11.3-6.7,11.9C0.6,25.1,0,24.7,0,24.1z"/>
  <path class="st0" d="M0,24.1L0,2.3c0-0.6,0.5-1,1-0.9C3.2,2,7.8,4.2,7.8,13c0,8.8-4.6,11.3-6.7,11.9C0.6,25.1,0,24.7,0,24.1z"/>
  <linearGradient id="SVGID_3_" gradientUnits="userSpaceOnUse" x1="4.1351" y1="22.2441" x2="3.1501" y2="0.5573" gradientTransform="matrix(1 0 0 -1 0 25.8898)">
	<stop  offset="0" style="stop-color:#556DEE"/>
    <stop  offset="1" style="stop-color:#465399"/>
</linearGradient>
  <path class="st3" d="M0,24.1L0,2.3c0-0.6,0.5-1,1-0.9C3.2,2,7.8,4.2,7.8,13c0,8.8-4.6,11.3-6.7,11.9C0.6,25.1,0,24.7,0,24.1z"/>
  <path class="st0" d="M19.6,4.3l6.6,6.6c0.4,0.4,0.4,1-0.1,1.3c-1.3,0.7-3.8,1.6-6.5-1.1c-2.7-2.7-1.9-5.3-1.2-6.6
	C18.5,3.9,19.1,3.9,19.6,4.3z"/>
</svg>
