<svg width="18" height="18" viewBox="0 0 18 18" fill="none" xmlns="http://www.w3.org/2000/svg">
<g id="paperclip 1">
<path id="Vector" d="M5.0625 3.375C5.0625 2.62908 5.35882 1.91371 5.88626 1.38626C6.41371 0.858816 7.12908 0.5625 7.875 0.5625C8.62092 0.5625 9.33629 0.858816 9.86374 1.38626C10.3912 1.91371 10.6875 2.62908 10.6875 3.375V13.5C10.6875 13.9476 10.5097 14.3768 10.1932 14.6932C9.87678 15.0097 9.44755 15.1875 9 15.1875C8.55245 15.1875 8.12322 15.0097 7.80676 14.6932C7.49029 14.3768 7.3125 13.9476 7.3125 13.5V5.625C7.3125 5.47582 7.37176 5.33274 7.47725 5.22725C7.58274 5.12176 7.72582 5.0625 7.875 5.0625C8.02418 5.0625 8.16726 5.12176 8.27275 5.22725C8.37824 5.33274 8.4375 5.47582 8.4375 5.625V13.5C8.4375 13.6492 8.49676 13.7923 8.60225 13.8977C8.70774 14.0032 8.85082 14.0625 9 14.0625C9.14918 14.0625 9.29226 14.0032 9.39775 13.8977C9.50324 13.7923 9.5625 13.6492 9.5625 13.5V3.375C9.5625 3.15339 9.51885 2.93396 9.43405 2.72922C9.34924 2.52448 9.22494 2.33846 9.06824 2.18176C8.91154 2.02506 8.72552 1.90076 8.52078 1.81595C8.31604 1.73115 8.09661 1.6875 7.875 1.6875C7.65339 1.6875 7.43396 1.73115 7.22922 1.81595C7.02448 1.90076 6.83846 2.02506 6.68176 2.18176C6.52506 2.33846 6.40076 2.52448 6.31595 2.72922C6.23115 2.93396 6.1875 3.15339 6.1875 3.375V13.5C6.1875 14.2459 6.48382 14.9613 7.01126 15.4887C7.53871 16.0162 8.25408 16.3125 9 16.3125C9.74592 16.3125 10.4613 16.0162 10.9887 15.4887C11.5162 14.9613 11.8125 14.2459 11.8125 13.5V5.625C11.8125 5.47582 11.8718 5.33274 11.9773 5.22725C12.0827 5.12176 12.2258 5.0625 12.375 5.0625C12.5242 5.0625 12.6673 5.12176 12.7727 5.22725C12.8782 5.33274 12.9375 5.47582 12.9375 5.625V13.5C12.9375 14.5443 12.5227 15.5458 11.7842 16.2842C11.0458 17.0227 10.0443 17.4375 9 17.4375C7.95571 17.4375 6.95419 17.0227 6.21577 16.2842C5.47734 15.5458 5.0625 14.5443 5.0625 13.5V3.375Z" fill="black"/>
</g>
</svg>
