<svg width="92" height="92" viewBox="0 0 92 92" fill="none" xmlns="http://www.w3.org/2000/svg">
<path opacity="0.14" d="M18.1037 81.1413C18.0539 81.1413 18.0079 81.1414 17.9542 81.1375C16.7467 81.0762 15.5622 80.8155 14.4352 80.3594C8.88837 78.1054 6.2127 71.7689 8.46287 66.2259L36.5267 17.0595C37.4927 15.3115 38.957 13.8472 40.7434 12.8582C45.9759 9.96019 52.5922 11.8654 55.4864 17.094L83.3662 65.8847C83.9872 67.3452 84.2517 68.5335 84.3169 69.7449C84.4664 72.6429 83.4774 75.422 81.5377 77.5725C79.598 79.723 76.9339 80.9919 74.0397 81.1375L18.3797 81.1413H18.1037Z" fill="#EB5757"/>
<path fill-rule="evenodd" clip-rule="evenodd" d="M42.6438 38.413C42.6438 36.5653 44.1503 35.0588 45.998 35.0588C47.8456 35.0588 49.3521 36.5653 49.3521 38.413V49.2537C49.3521 51.1052 47.8456 52.6078 45.998 52.6078C44.1503 52.6078 42.6438 51.1052 42.6438 49.2537V38.413ZM42.6438 62.3679C42.6438 60.5087 44.1503 58.9946 45.998 58.9946C47.8456 58.9946 49.3521 60.4896 49.3521 62.3257C49.3521 64.2156 47.8456 65.7221 45.998 65.7221C44.1503 65.7221 42.6438 64.2156 42.6438 62.3679Z" fill="#EB5757"/>
</svg>
