<svg width="18" height="18" viewBox="0 0 18 18" fill="none" xmlns="http://www.w3.org/2000/svg">
    <path d="M17.2947 13.8917L12.4031 9.00241L17.292 4.11313C18.2323 3.17542 18.2323 1.64924 17.292 0.711532C16.3516 -0.234425 14.831 -0.231676 13.8906 0.708782L8.99897 5.59806L4.10731 0.703282C3.16693 -0.237175 1.64361 -0.231676 0.703227 0.703282C-0.234409 1.64374 -0.234409 3.16992 0.703227 4.10763L5.59763 9.00241L0.714226 13.8834C-0.22616 14.8239 -0.22616 16.3501 0.714226 17.285C1.18442 17.758 1.79759 17.9917 2.41352 17.9917C3.03219 17.9917 3.64537 17.758 4.11556 17.2878L8.99897 12.404L13.8934 17.296C14.3636 17.7663 14.9767 18 15.5927 18C16.2086 18 16.8245 17.7635 17.2947 17.296C18.2351 16.3556 18.2351 14.8321 17.2947 13.8917Z" fill="#EB5757"/>
</svg>
