<svg width="18" height="18" viewBox="0 0 18 18" fill="none" xmlns="http://www.w3.org/2000/svg">
    <path d="M9.17736 10.1147L9.17739 10.1147C9.55905 10.4286 10.0932 10.7727 10.5522 11.0477C10.6718 11.1193 10.7841 11.1849 10.8846 11.2428C11.2456 10.9149 11.7501 10.4679 12.0921 10.2123L12.0923 10.2122C12.705 9.75447 13.3316 9.86864 13.7327 10.0713C13.9212 10.1666 14.068 10.2822 14.1647 10.3689C14.2144 10.4134 14.2543 10.4534 14.2836 10.4843C14.2945 10.4959 14.3041 10.5063 14.3123 10.5154L14.3177 10.5208L14.3809 10.584L14.6088 10.8128C14.7991 11.0039 15.057 11.2636 15.3272 11.5374C15.8568 12.0741 16.4652 12.6966 16.6791 12.9422L16.6793 12.9425C17.0259 13.3408 17.1048 13.7802 17.0952 14.1048C17.0905 14.2637 17.0649 14.398 17.04 14.495C17.0273 14.544 17.0144 14.5852 17.0034 14.6172C16.9978 14.6332 16.9927 14.647 16.9883 14.6586L16.9821 14.6741L16.9795 14.6806L16.9783 14.6835L16.9777 14.6849L16.9774 14.6856C16.9773 14.6859 16.9772 14.6862 16.286 14.3951L16.9772 14.6862L16.9516 14.7468L16.9159 14.8021C16.8923 14.8387 16.8681 14.8766 16.8432 14.9155C16.5715 15.3407 16.2173 15.8949 15.6058 16.3237C14.9213 16.8036 13.995 17.0825 12.6352 17.1136L12.627 17.1137L12.6188 17.1138C11.1219 17.1152 9.66076 16.4997 8.3596 15.6549C7.05809 14.8098 5.85779 13.6972 4.85808 12.6028C3.86053 11.6306 2.88329 10.501 2.15032 9.2906C1.41621 8.0783 0.898157 6.73686 0.899416 5.36393L0.899424 5.35564L0.899615 5.34736C0.930921 3.98739 1.21004 3.0611 1.69005 2.3766C2.11896 1.76498 2.67314 1.41084 3.09838 1.13909C3.13731 1.11421 3.17516 1.09002 3.21174 1.06639L3.26717 1.03058L3.32799 1.00499L3.61877 1.69633C3.32799 1.00499 3.32832 1.00486 3.32864 1.00472L3.32931 1.00444L3.33068 1.00387L3.33359 1.00266L3.34007 1.00002L3.35565 0.993899C3.36718 0.98947 3.38103 0.984363 3.39706 0.978832C3.42901 0.967805 3.47019 0.954887 3.51925 0.942272C3.61625 0.917329 3.75059 0.891878 3.90959 0.887227C4.23414 0.877734 4.6736 0.956881 5.07172 1.30383L9.17736 10.1147ZM9.17736 10.1147C8.02309 9.16558 7.23596 7.98299 6.80382 7.27413M9.17736 10.1147L6.80382 7.27413M6.80382 7.27413L6.73253 7.13973C7.06408 6.77594 7.53647 6.24514 7.80142 5.88997L6.80382 7.27413ZM7.49791 3.66999C7.50699 3.67816 7.51747 3.68779 7.52912 3.69882C7.55998 3.72805 7.59996 3.76799 7.64443 3.81766C7.73107 3.91443 7.84658 4.06121 7.94185 4.24975C8.14436 4.65051 8.25884 5.277 7.80159 5.88975L7.49791 3.66999ZM7.49791 3.66999L7.4924 3.66447L7.42917 3.60134L7.20045 3.37338C7.00935 3.18315 6.74973 2.92532 6.47597 2.65515C5.93976 2.12597 5.31775 1.51807 5.07192 1.304L7.49791 3.66999ZM11.3407 11.4974L11.3404 11.4972L11.3407 11.4974Z" stroke="#6E6E73" stroke-width="1.5"/>
</svg>
