<svg width="22" height="34" viewBox="0 0 22 34" fill="none" xmlns="http://www.w3.org/2000/svg">
<path d="M8 23.1C8 21.87 8.27 20.73 8.81 19.68C9.35 18.63 10.01 17.73 10.79 16.98C11.57 16.2 12.35 15.465 13.13 14.775C13.91 14.055 14.57 13.29 15.11 12.48C15.65 11.64 15.92 10.77 15.92 9.87C15.92 8.61 15.485 7.65 14.615 6.99C13.745 6.3 12.575 5.955 11.105 5.955C9.695 5.955 8.48 6.315 7.46 7.035C6.44 7.755 5.705 8.775 5.255 10.095L0.8 7.575C1.64 5.445 2.99 3.81 4.85 2.67C6.74 1.5 8.87 0.914997 11.24 0.914997C13.91 0.914997 16.22 1.68 18.17 3.21C20.12 4.74 21.095 6.855 21.095 9.555C21.095 10.815 20.825 12 20.285 13.11C19.745 14.19 19.085 15.12 18.305 15.9C17.525 16.68 16.745 17.445 15.965 18.195C15.185 18.915 14.525 19.695 13.985 20.535C13.445 21.375 13.175 22.23 13.175 23.1H8ZM12.995 32.55C12.335 33.21 11.54 33.54 10.61 33.54C9.68 33.54 8.885 33.21 8.225 32.55C7.565 31.89 7.235 31.095 7.235 30.165C7.235 29.235 7.55 28.44 8.18 27.78C8.84 27.12 9.65 26.79 10.61 26.79C11.54 26.79 12.335 27.12 12.995 27.78C13.655 28.44 13.985 29.235 13.985 30.165C13.985 31.095 13.655 31.89 12.995 32.55Z" fill="black"/>
</svg>
