<svg width="67" height="67" viewBox="0 0 67 67" fill="none" xmlns="http://www.w3.org/2000/svg">
<rect width="67" height="67" rx="5" />
<path d="M48.4311 52H20.0339C19.4685 52 19.0231 51.5346 19.0934 50.9736C19.5172 47.5897 21.8167 37 34 37C46.1483 37 48.8205 47.5289 49.3678 50.9443C49.4593 51.5155 49.0096 52 48.4311 52Z" fill="url(#paint0_linear_314_326)"/>
<path d="M19 50.8938L19 16.0518C19 15.4797 19.4756 15.0375 20.0352 15.1563C22.9474 15.7747 31 18.7873 31 33.1967C31 47.5309 23.0313 50.9898 20.0813 51.7791C19.5093 51.9322 19 51.4859 19 50.8938Z" fill="url(#paint1_linear_314_326)"/>
<path d="M19 50.8938L19 16.0518C19 15.4797 19.4756 15.0375 20.0352 15.1563C22.9474 15.7747 31 18.7873 31 33.1967C31 47.5309 23.0313 50.9898 20.0813 51.7791C19.5093 51.9322 19 51.4859 19 50.8938Z" fill="url(#paint2_linear_314_326)"/>
<path d="M36.0627 17L46.9691 17C47.5333 17 47.9775 17.465 47.8828 18.0212C47.5518 19.9639 46.2995 24 41.6066 24C36.936 24 35.5516 20.0023 35.154 18.0491C35.039 17.4845 35.4866 17 36.0627 17Z" fill="#062439"/>
<path d="M48 18.0912L48 31.9553C48 32.5248 47.5252 32.9655 46.9754 32.8173C45.2617 32.3554 42 30.7395 42 25.1311C42 19.5618 45.2165 17.789 46.9394 17.2389C47.4982 17.0604 48 17.5046 48 18.0912Z" fill="#062439"/>
<defs>
<linearGradient id="paint0_linear_314_326" x1="44.5502" y1="42.9253" x2="19.0859" y2="51.5554" gradientUnits="userSpaceOnUse">
<stop stop-color="#556DEE"/>
<stop offset="1" stop-color="#09273D"/>
</linearGradient>
<linearGradient id="paint1_linear_314_326" x1="26.2598" y1="45.9954" x2="12.2587" y2="18.7515" gradientUnits="userSpaceOnUse">
<stop stop-color="#556DEE"/>
<stop offset="1" stop-color="#09273D"/>
</linearGradient>
<linearGradient id="paint2_linear_314_326" x1="21" y1="18.5577" x2="19.4815" y2="51.9916" gradientUnits="userSpaceOnUse">
<stop stop-color="#556DEE"/>
<stop offset="1" stop-color="#465399"/>
</linearGradient>
</defs>
</svg>
