<svg width="87" height="15" viewBox="0 0 87 15" fill="none" xmlns="http://www.w3.org/2000/svg">
<path d="M32.364 12L31.678 10.026H27.506L26.82 12H25.07L28.626 2.2H30.558L34.1 12H32.364ZM28.038 8.514H31.146L29.592 4.09L28.038 8.514ZM38.7378 4.818C39.6992 4.818 40.5205 5.17733 41.2018 5.896C41.8832 6.60533 42.2238 7.47333 42.2238 8.5C42.2238 9.536 41.8832 10.4087 41.2018 11.118C40.5205 11.8273 39.6992 12.182 38.7378 12.182C37.6738 12.182 36.8572 11.79 36.2878 11.006V14.8H34.7758V5H36.2878V6.008C36.8572 5.21467 37.6738 4.818 38.7378 4.818ZM36.9178 10.11C37.3378 10.53 37.8652 10.74 38.4998 10.74C39.1345 10.74 39.6618 10.53 40.0818 10.11C40.5018 9.68067 40.7118 9.144 40.7118 8.5C40.7118 7.856 40.5018 7.324 40.0818 6.904C39.6618 6.47467 39.1345 6.26 38.4998 6.26C37.8652 6.26 37.3378 6.47467 36.9178 6.904C36.4978 7.324 36.2878 7.856 36.2878 8.5C36.2878 9.144 36.4978 9.68067 36.9178 10.11ZM47.2762 4.818C48.2375 4.818 49.0589 5.17733 49.7402 5.896C50.4215 6.60533 50.7622 7.47333 50.7622 8.5C50.7622 9.536 50.4215 10.4087 49.7402 11.118C49.0589 11.8273 48.2375 12.182 47.2762 12.182C46.2122 12.182 45.3955 11.79 44.8262 11.006V14.8H43.3142V5H44.8262V6.008C45.3955 5.21467 46.2122 4.818 47.2762 4.818ZM45.4562 10.11C45.8762 10.53 46.4035 10.74 47.0382 10.74C47.6729 10.74 48.2002 10.53 48.6202 10.11C49.0402 9.68067 49.2502 9.144 49.2502 8.5C49.2502 7.856 49.0402 7.324 48.6202 6.904C48.2002 6.47467 47.6729 6.26 47.0382 6.26C46.4035 6.26 45.8762 6.47467 45.4562 6.904C45.0362 7.324 44.8262 7.856 44.8262 8.5C44.8262 9.144 45.0362 9.68067 45.4562 10.11ZM58.4325 12.182C57.4899 12.182 56.6872 11.9673 56.0245 11.538C55.3712 11.1087 54.9139 10.5207 54.6525 9.774L56.0385 8.962C56.4305 10.0633 57.2425 10.614 58.4745 10.614C59.0812 10.614 59.5339 10.4973 59.8325 10.264C60.1405 10.0213 60.2945 9.70867 60.2945 9.326C60.2945 8.92467 60.1312 8.62133 59.8045 8.416C59.4779 8.20133 58.8992 7.968 58.0685 7.716C57.6019 7.576 57.2239 7.44533 56.9345 7.324C56.6452 7.20267 56.3372 7.03467 56.0105 6.82C55.6932 6.596 55.4552 6.32067 55.2965 5.994C55.1379 5.66733 55.0585 5.28467 55.0585 4.846C55.0585 3.978 55.3665 3.292 55.9825 2.788C56.5985 2.27467 57.3405 2.018 58.2085 2.018C58.9925 2.018 59.6785 2.20933 60.2665 2.592C60.8545 2.97467 61.3072 3.502 61.6245 4.174L60.2665 4.958C59.8559 4.04333 59.1699 3.586 58.2085 3.586C57.7419 3.586 57.3685 3.698 57.0885 3.922C56.8085 4.13667 56.6685 4.43067 56.6685 4.804C56.6685 5.168 56.8085 5.45733 57.0885 5.672C57.3779 5.87733 57.8959 6.09667 58.6425 6.33C59.0159 6.45133 59.2865 6.54467 59.4545 6.61C59.6319 6.666 59.8745 6.75933 60.1825 6.89C60.4999 7.02067 60.7379 7.15133 60.8965 7.282C61.0552 7.41267 61.2232 7.576 61.4005 7.772C61.5872 7.968 61.7179 8.192 61.7925 8.444C61.8672 8.696 61.9045 8.98067 61.9045 9.298C61.9045 10.1847 61.5825 10.8893 60.9385 11.412C60.3039 11.9253 59.4685 12.182 58.4325 12.182ZM66.6146 6.456H64.8786V9.816C64.8786 10.1053 64.9439 10.3153 65.0746 10.446C65.2052 10.5673 65.3966 10.6373 65.6486 10.656C65.9099 10.6653 66.2319 10.6607 66.6146 10.642V12C65.4572 12.14 64.6266 12.042 64.1226 11.706C63.6186 11.3607 63.3666 10.7307 63.3666 9.816V6.456H62.0786V5H63.3666V3.488L64.8786 3.04V5H66.6146V6.456ZM70.7228 12.182C69.6961 12.182 68.8235 11.8273 68.1048 11.118C67.3861 10.4087 67.0268 9.536 67.0268 8.5C67.0268 7.464 67.3861 6.59133 68.1048 5.882C68.8235 5.17267 69.6961 4.818 70.7228 4.818C71.7588 4.818 72.6315 5.17267 73.3408 5.882C74.0595 6.59133 74.4188 7.464 74.4188 8.5C74.4188 9.536 74.0595 10.4087 73.3408 11.118C72.6315 11.8273 71.7588 12.182 70.7228 12.182ZM69.1688 10.082C69.5888 10.502 70.1068 10.712 70.7228 10.712C71.3388 10.712 71.8568 10.502 72.2768 10.082C72.6968 9.662 72.9068 9.13467 72.9068 8.5C72.9068 7.86533 72.6968 7.338 72.2768 6.918C71.8568 6.498 71.3388 6.288 70.7228 6.288C70.1068 6.288 69.5888 6.498 69.1688 6.918C68.7488 7.338 68.5388 7.86533 68.5388 8.5C68.5388 9.13467 68.7488 9.662 69.1688 10.082ZM77.018 6.176C77.4007 5.308 78.1193 4.874 79.174 4.874V6.512C78.5953 6.47467 78.0913 6.61467 77.662 6.932C77.2327 7.24 77.018 7.75333 77.018 8.472V12H75.506V5H77.018V6.176ZM80.873 9.144C80.985 9.676 81.2417 10.0867 81.643 10.376C82.0443 10.656 82.5343 10.796 83.113 10.796C83.9157 10.796 84.5177 10.5067 84.919 9.928L86.165 10.656C85.4743 11.6733 84.4523 12.182 83.099 12.182C81.9603 12.182 81.041 11.8367 80.341 11.146C79.641 10.446 79.291 9.564 79.291 8.5C79.291 7.45467 79.6363 6.582 80.327 5.882C81.0177 5.17267 81.9043 4.818 82.987 4.818C84.0137 4.818 84.8537 5.17733 85.507 5.896C86.1697 6.61467 86.501 7.48733 86.501 8.514C86.501 8.67267 86.4823 8.88267 86.445 9.144H80.873ZM80.859 7.912H84.975C84.8723 7.34267 84.6343 6.91333 84.261 6.624C83.897 6.33467 83.4677 6.19 82.973 6.19C82.413 6.19 81.9463 6.344 81.573 6.652C81.1997 6.96 80.9617 7.38 80.859 7.912Z" fill="#062439"/>
<g clip-path="url(#clip0_7043_9474)">
<path d="M11.97 0H3.03C1.35563 0 0 1.35563 0 3.03V11.9719C0 13.6444 1.35563 15 3.03 15H11.9719C13.6444 15 15.0019 13.6444 15.0019 11.97V3.03C15 1.35563 13.6444 0 11.97 0Z" fill="url(#paint0_linear_7043_9474)"/>
<path d="M7.43652 3.44625L7.74027 2.92125C7.92777 2.59312 8.3459 2.4825 8.67402 2.67C9.00215 2.8575 9.11277 3.27562 8.92527 3.60375L5.9984 8.67H8.11527C8.80152 8.67 9.1859 9.47625 8.88777 10.035H2.68152C2.30277 10.035 1.99902 9.73125 1.99902 9.3525C1.99902 8.97375 2.30277 8.67 2.68152 8.67H4.42152L6.64902 4.80937L5.9534 3.60187C5.7659 3.27375 5.87652 2.85937 6.20465 2.66812C6.53277 2.48062 6.94715 2.59125 7.1384 2.91937L7.43652 3.44625ZM4.80402 10.7381L4.14777 11.8762C3.96027 12.2044 3.54215 12.315 3.21402 12.1275C2.8859 11.94 2.77527 11.5219 2.96277 11.1937L3.45027 10.35C4.00152 10.1794 4.44965 10.3106 4.80402 10.7381ZM10.4553 8.67375H12.2309C12.6096 8.67375 12.9134 8.9775 12.9134 9.35625C12.9134 9.735 12.6096 10.0387 12.2309 10.0387H11.2446L11.9103 11.1937C12.0978 11.5219 11.9871 11.9362 11.659 12.1275C11.3309 12.315 10.9165 12.2044 10.7253 11.8762C9.60402 9.93187 8.76215 8.47687 8.2034 7.5075C7.63152 6.52125 8.04027 5.53125 8.4434 5.19562C8.89152 5.96437 9.5609 7.125 10.4553 8.67375Z" fill="white"/>
</g>
<defs>
<linearGradient id="paint0_linear_7043_9474" x1="7.50094" y1="0" x2="7.50094" y2="15" gradientUnits="userSpaceOnUse">
<stop stop-color="#18BFFB"/>
<stop offset="1" stop-color="#2072F3"/>
</linearGradient>
<clipPath id="clip0_7043_9474">
<rect width="15" height="15" fill="white"/>
</clipPath>
</defs>
</svg>
