<svg width="89" height="18" viewBox="0 0 89 18" fill="none" xmlns="http://www.w3.org/2000/svg">
<g clip-path="url(#clip0_7043_9473)">
<path d="M87.3987 7.38193L85.7534 11.572H85.704L83.9874 7.38193H82.4353L85.0075 13.2392L83.5377 16.4969H85.0459L89.0111 7.38193H87.3987ZM75.7719 3.90485H74.335V13.5683H75.7719V3.90485ZM70.3643 3.90485H66.9092V13.5683H68.357V9.91022H70.3698C70.7756 9.92411 71.1801 9.85724 71.5598 9.71352C71.9396 9.56979 72.287 9.35206 72.5819 9.07296C72.8768 8.79387 73.1134 8.45897 73.2778 8.08771C73.4422 7.71645 73.5312 7.31623 73.5397 6.91028C73.5312 6.50361 73.4421 6.10267 73.2774 5.73075C73.1127 5.35882 72.8757 5.02332 72.5803 4.74372C72.2849 4.46411 71.9369 4.24597 71.5565 4.10197C71.176 3.95797 70.7708 3.89097 70.3643 3.90485ZM70.4027 8.56107H68.357V5.27046H70.4082C70.8445 5.27046 71.263 5.4438 71.5716 5.75236C71.8801 6.06091 72.0535 6.4794 72.0535 6.91576C72.0535 7.35212 71.8801 7.77061 71.5716 8.07917C71.263 8.38772 70.8445 8.56107 70.4082 8.56107H70.4027ZM79.3147 7.17353C78.7884 7.14333 78.2647 7.26735 77.8079 7.53037C77.351 7.79339 76.9808 8.18399 76.7426 8.6543L78.0259 9.20274C78.1531 8.97021 78.3454 8.7799 78.5792 8.65519C78.8131 8.53048 79.0782 8.47679 79.3422 8.50074C79.5234 8.48258 79.7064 8.50043 79.8807 8.55324C80.055 8.60606 80.2172 8.69281 80.3578 8.8085C80.4985 8.9242 80.6149 9.06655 80.7004 9.22739C80.7859 9.38822 80.8387 9.56436 80.8558 9.74569V9.8444C80.396 9.59569 79.8814 9.46562 79.3586 9.46598C77.982 9.46598 76.5781 10.2228 76.5781 11.6597C76.5781 12.954 77.7024 13.7877 78.9747 13.7877C79.3368 13.8106 79.6983 13.7351 80.0209 13.569C80.3434 13.4029 80.6149 13.1524 80.8065 12.8443H80.8613V13.5902H82.2653V9.87183C82.2653 8.15522 80.982 7.20095 79.3257 7.20095L79.3147 7.17353ZM79.1447 12.4714C78.6731 12.4714 78.015 12.2301 78.015 11.6488C78.015 10.9029 78.8321 10.6177 79.5451 10.6177C80.0049 10.6054 80.4596 10.7172 80.8613 10.9413C80.8084 11.3607 80.6053 11.7467 80.2897 12.028C79.9742 12.3093 79.5674 12.4668 79.1447 12.4714ZM27.1421 13.7767C25.7774 13.7812 24.4659 13.2478 23.4917 12.2921C22.5175 11.3364 21.9591 10.0353 21.9375 8.67075C21.9591 7.30621 22.5175 6.00514 23.4917 5.04943C24.4659 4.09371 25.7774 3.56033 27.1421 3.56483C27.7924 3.554 28.4383 3.67309 29.042 3.91512C29.6457 4.15715 30.1949 4.51724 30.6576 4.9743L29.6649 5.956C28.9917 5.29627 28.0848 4.92957 27.1421 4.93591C26.1574 4.93591 25.213 5.32709 24.5167 6.0234C23.8204 6.7197 23.4292 7.66409 23.4292 8.64882C23.4292 9.63354 23.8204 10.5779 24.5167 11.2742C25.213 11.9705 26.1574 12.3617 27.1421 12.3617C27.6214 12.3814 28.0994 12.3003 28.5453 12.1236C28.9912 11.947 29.395 11.6787 29.7308 11.3361C30.1771 10.8549 30.446 10.2358 30.4931 9.58115H27.1421V8.22652H31.8587C31.9101 8.51426 31.934 8.80626 31.93 9.09853C31.9774 10.3126 31.5415 11.4959 30.7179 12.3891C30.253 12.8588 29.6942 13.2252 29.078 13.4643C28.4619 13.7034 27.8022 13.8098 27.1421 13.7767ZM39.2242 10.4861C39.2422 10.9248 39.1713 11.3626 39.0159 11.7732C38.8604 12.1838 38.6235 12.5587 38.3195 12.8755C38.0155 13.1923 37.6506 13.4443 37.2467 13.6165C36.8428 13.7887 36.4083 13.8774 35.9692 13.8774C35.5301 13.8774 35.0956 13.7887 34.6917 13.6165C34.2878 13.4443 33.9229 13.1923 33.6189 12.8755C33.3149 12.5587 33.078 12.1838 32.9225 11.7732C32.7671 11.3626 32.6962 10.9248 32.7142 10.4861C32.6962 10.0474 32.7671 9.60958 32.9225 9.19897C33.078 8.78835 33.3149 8.4134 33.6189 8.09663C33.9229 7.77987 34.2878 7.52783 34.6917 7.35566C35.0956 7.18349 35.5301 7.09473 35.9692 7.09473C36.4083 7.09473 36.8428 7.18349 37.2467 7.35566C37.6506 7.52783 38.0155 7.77987 38.3195 8.09663C38.6235 8.4134 38.8604 8.78835 39.0159 9.19897C39.1713 9.60958 39.2422 10.0474 39.2242 10.4861ZM37.7982 10.4861C37.8224 10.2313 37.7931 9.97429 37.7122 9.7315C37.6313 9.48872 37.5006 9.26551 37.3284 9.07619C37.1562 8.88687 36.9463 8.73562 36.7123 8.63211C36.4782 8.52861 36.2251 8.47515 35.9692 8.47515C35.7133 8.47515 35.4602 8.52861 35.2261 8.63211C34.9921 8.73562 34.7822 8.88687 34.6101 9.07619C34.4379 9.26551 34.3071 9.48872 34.2262 9.7315C34.1453 9.97429 34.116 10.2313 34.1402 10.4861C34.116 10.7408 34.1453 10.9979 34.2262 11.2406C34.3071 11.4834 34.4379 11.7066 34.6101 11.896C34.7822 12.0853 34.9921 12.2365 35.2261 12.34C35.4602 12.4435 35.7133 12.497 35.9692 12.497C36.2251 12.497 36.4782 12.4435 36.7123 12.34C36.9463 12.2365 37.1562 12.0853 37.3284 11.896C37.5006 11.7066 37.6313 11.4834 37.7122 11.2406C37.7931 10.9979 37.8224 10.7408 37.7982 10.4861ZM46.5183 10.4861C46.5183 11.3486 46.1757 12.1758 45.5658 12.7857C44.9559 13.3956 44.1287 13.7383 43.2661 13.7383C42.4036 13.7383 41.5764 13.3956 40.9665 12.7857C40.3566 12.1758 40.0139 11.3486 40.0139 10.4861C40.0139 9.62353 40.3566 8.79632 40.9665 8.18641C41.5764 7.5765 42.4036 7.23385 43.2661 7.23385C44.1287 7.23385 44.9559 7.5765 45.5658 8.18641C46.1757 8.79632 46.5183 9.62353 46.5183 10.4861ZM45.0979 10.4861C45.1221 10.2313 45.0928 9.97429 45.0119 9.7315C44.931 9.48872 44.8002 9.26551 44.628 9.07619C44.4558 8.88687 44.246 8.73562 44.0119 8.63211C43.7779 8.52861 43.5248 8.47515 43.2689 8.47515C43.013 8.47515 42.7599 8.52861 42.5258 8.63211C42.2918 8.73562 42.0819 8.88687 41.9097 9.07619C41.7375 9.26551 41.6068 9.48872 41.5259 9.7315C41.445 9.97429 41.4156 10.2313 41.4398 10.4861C41.4156 10.7408 41.445 10.9979 41.5259 11.2406C41.6068 11.4834 41.7375 11.7066 41.9097 11.896C42.0819 12.0853 42.2918 12.2365 42.5258 12.34C42.7599 12.4435 43.013 12.497 43.2689 12.497C43.5248 12.497 43.7779 12.4435 44.0119 12.34C44.246 12.2365 44.4558 12.0853 44.628 11.896C44.8002 11.7066 44.931 11.4834 45.0119 11.2406C45.0928 10.9979 45.1221 10.7408 45.0979 10.4861ZM53.637 7.39838V13.305C53.637 15.7291 52.1946 16.7273 50.4945 16.7273C49.8713 16.7325 49.2605 16.553 48.7393 16.2113C48.218 15.8697 47.8097 15.3813 47.5659 14.8077L48.8108 14.2593C48.9399 14.5941 49.1649 14.8835 49.4575 15.0912C49.7501 15.299 50.0974 15.4159 50.4561 15.4275C51.553 15.4275 52.2221 14.7529 52.2221 13.497V13.0253H52.1672C51.9521 13.2654 51.6881 13.4566 51.393 13.5862C51.0979 13.7158 50.7784 13.7807 50.4561 13.7767C49.5834 13.7767 48.7464 13.43 48.1293 12.8129C47.5122 12.1958 47.1655 11.3588 47.1655 10.4861C47.1655 9.61335 47.5122 8.77637 48.1293 8.15926C48.7464 7.54215 49.5834 7.19546 50.4561 7.19546C50.7805 7.18832 51.1028 7.25014 51.4015 7.37683C51.7003 7.50351 51.9688 7.69219 52.1892 7.93037H52.244V7.38193H53.637V7.39838ZM52.3592 10.5025C52.3793 10.2543 52.3494 10.0046 52.2712 9.76817C52.193 9.53175 52.068 9.31345 51.9038 9.12623C51.7396 8.93901 51.5395 8.78668 51.3153 8.6783C51.0911 8.56991 50.8474 8.50766 50.5987 8.49525C50.3451 8.50366 50.0958 8.56253 49.8652 8.66844C49.6347 8.77435 49.4275 8.92516 49.256 9.11206C49.0844 9.29896 48.9518 9.51819 48.8659 9.75694C48.7801 9.99569 48.7427 10.2492 48.756 10.5025C48.7442 10.7542 48.7828 11.0057 48.8695 11.2422C48.9563 11.4787 49.0893 11.6956 49.261 11.88C49.4326 12.0644 49.6394 12.2127 49.8691 12.3161C50.0988 12.4195 50.3469 12.4761 50.5987 12.4824C50.8459 12.4728 51.0887 12.4134 51.3124 12.3077C51.5361 12.202 51.7361 12.0522 51.9005 11.8673C52.0649 11.6824 52.1903 11.4663 52.2691 11.2317C52.3479 10.9972 52.3786 10.7492 52.3592 10.5025ZM56.1763 3.91582V13.5738H54.7284V3.91582H56.1763ZM61.88 11.572L63.0098 12.3178C62.7081 12.768 62.3 13.1367 61.8217 13.3912C61.3433 13.6457 60.8095 13.7781 60.2676 13.7767C59.8366 13.7829 59.4088 13.7015 59.0101 13.5375C58.6114 13.3736 58.2501 13.1304 57.9481 12.8228C57.6462 12.5152 57.4097 12.1495 57.2532 11.7478C57.0966 11.3462 57.0232 10.9169 57.0373 10.4861C56.9731 9.74538 57.1837 9.00696 57.629 8.41157C58.0743 7.81618 58.7231 7.40546 59.4517 7.2577C60.1803 7.10993 60.9379 7.23546 61.5799 7.61036C62.222 7.98525 62.7036 8.58329 62.933 9.29048L63.0811 9.6689L58.6936 11.4842C58.8303 11.7915 59.0559 12.0508 59.3413 12.2287C59.6268 12.4066 59.9589 12.495 60.295 12.4824C60.6147 12.4774 60.9279 12.3912 61.2051 12.2319C61.4824 12.0727 61.7146 11.8456 61.88 11.572ZM58.4194 10.3874L61.37 9.16983C61.2557 8.94631 61.0785 8.7612 60.8601 8.6374C60.6418 8.5136 60.3919 8.45655 60.1415 8.47332C59.902 8.48379 59.667 8.54187 59.4502 8.64416C59.2335 8.74646 59.0393 8.89092 58.8789 9.06911C58.7186 9.2473 58.5954 9.45565 58.5165 9.68199C58.4376 9.90832 58.4046 10.1481 58.4194 10.3874Z" fill="#062439"/>
<path d="M7.42542 8.38008L0.0654297 16.0911C0.148073 16.384 0.296594 16.6541 0.49964 16.8808C0.702686 17.1075 0.95488 17.2848 1.23694 17.3991C1.51901 17.5135 1.82348 17.5618 2.12707 17.5404C2.43066 17.519 2.72534 17.4284 2.98859 17.2757L11.27 12.5592L7.42542 8.38008Z" fill="#EA4335"/>
<path d="M14.8681 7.06932L11.2869 5.01817L7.25586 8.55558L11.3033 12.5482L14.8572 10.519C15.172 10.3541 15.4357 10.1062 15.6197 9.8022C15.8038 9.49815 15.901 9.14954 15.901 8.79415C15.901 8.43875 15.8038 8.09014 15.6197 7.7861C15.4357 7.48205 15.172 7.23417 14.8572 7.06932H14.8681Z" fill="#FBBC04"/>
<path d="M0.0658338 1.45883C0.0213442 1.6233 -0.000792184 1.79301 2.16477e-05 1.96339V15.5865C0.000466637 15.7568 0.0225817 15.9264 0.0658338 16.0911L7.67811 8.57752L0.0658338 1.45883Z" fill="#4285F4"/>
<path d="M7.48027 8.77496L11.2864 5.01818L3.01601 0.279706C2.70487 0.0974829 2.351 0.000972839 1.99044 3.92248e-06C1.55497 -0.000859044 1.13116 0.140693 0.78362 0.403081C0.436079 0.66547 0.183867 1.0343 0.0654297 1.45336L7.48027 8.77496Z" fill="#34A853"/>
</g>
<defs>
<clipPath id="clip0_7043_9473">
<rect width="89" height="17.5499" fill="white"/>
</clipPath>
</defs>
</svg>
